solid OpenSCAD_Model
  facet normal 1 -0 0
    outer loop
      vertex -26.75 -6.25 27.6829
      vertex -26.75 6.25 0
      vertex -26.75 6.25 27.6829
    endloop
  endfacet
  facet normal 1 0 0
    outer loop
      vertex -26.75 6.25 0
      vertex -26.75 -6.25 27.6829
      vertex -26.75 -6.25 0
    endloop
  endfacet
  facet normal 0 0 -1
    outer loop
      vertex -22.75 -10.25 27.6829
      vertex -26.75 -6.25 27.6829
      vertex -22.75 10.25 27.6829
    endloop
  endfacet
  facet normal 0 0 -1
    outer loop
      vertex -22.75 -10.25 27.6829
      vertex -33.25 -6.25 27.6829
      vertex -26.75 -6.25 27.6829
    endloop
  endfacet
  facet normal -0 0 -1
    outer loop
      vertex -33.25 -6.25 27.6829
      vertex -37.25 -10.25 27.6829
      vertex -33.25 6.25 27.6829
    endloop
  endfacet
  facet normal 0 0 -1
    outer loop
      vertex -37.25 -10.25 27.6829
      vertex -33.25 -6.25 27.6829
      vertex -22.75 -10.25 27.6829
    endloop
  endfacet
  facet normal 0 0 -1
    outer loop
      vertex -26.75 6.25 27.6829
      vertex -22.75 10.25 27.6829
      vertex -26.75 -6.25 27.6829
    endloop
  endfacet
  facet normal 0 0 -1
    outer loop
      vertex -33.25 6.25 27.6829
      vertex -22.75 10.25 27.6829
      vertex -26.75 6.25 27.6829
    endloop
  endfacet
  facet normal 0 0 -1
    outer loop
      vertex -33.25 6.25 27.6829
      vertex -37.25 10.25 27.6829
      vertex -22.75 10.25 27.6829
    endloop
  endfacet
  facet normal 0 0 -1
    outer loop
      vertex -37.25 10.25 27.6829
      vertex -33.25 6.25 27.6829
      vertex -37.25 -10.25 27.6829
    endloop
  endfacet
  facet normal 0 0 -1
    outer loop
      vertex -33.25 -6.25 0
      vertex -26.75 6.25 0
      vertex -26.75 -6.25 0
    endloop
  endfacet
  facet normal -0 0 -1
    outer loop
      vertex -26.75 6.25 0
      vertex -33.25 -6.25 0
      vertex -33.25 6.25 0
    endloop
  endfacet
  facet normal -1 0 0
    outer loop
      vertex -33.25 -6.25 0
      vertex -33.25 6.25 27.6829
      vertex -33.25 6.25 0
    endloop
  endfacet
  facet normal -1 -0 0
    outer loop
      vertex -33.25 6.25 27.6829
      vertex -33.25 -6.25 0
      vertex -33.25 -6.25 27.6829
    endloop
  endfacet
  facet normal 0 1 -0
    outer loop
      vertex -26.75 6.25 0
      vertex -33.25 6.25 27.6829
      vertex -26.75 6.25 27.6829
    endloop
  endfacet
  facet normal 0 1 0
    outer loop
      vertex -33.25 6.25 27.6829
      vertex -26.75 6.25 0
      vertex -33.25 6.25 0
    endloop
  endfacet
  facet normal 0 -1 0
    outer loop
      vertex -33.25 -6.25 0
      vertex -26.75 -6.25 27.6829
      vertex -33.25 -6.25 27.6829
    endloop
  endfacet
  facet normal 0 -1 -0
    outer loop
      vertex -26.75 -6.25 27.6829
      vertex -33.25 -6.25 0
      vertex -26.75 -6.25 0
    endloop
  endfacet
  facet normal 1 -0 0
    outer loop
      vertex -22.75 -10.25 33.6829
      vertex -22.75 10.25 27.6829
      vertex -22.75 10.25 33.6829
    endloop
  endfacet
  facet normal 1 0 0
    outer loop
      vertex -22.75 10.25 27.6829
      vertex -22.75 -10.25 33.6829
      vertex -22.75 -10.25 27.6829
    endloop
  endfacet
  facet normal -0 0 1
    outer loop
      vertex -37.25 10.25 33.6829
      vertex -22.75 -10.25 33.6829
      vertex -22.75 10.25 33.6829
    endloop
  endfacet
  facet normal 0 0 1
    outer loop
      vertex -22.75 -10.25 33.6829
      vertex -37.25 10.25 33.6829
      vertex -37.25 -10.25 33.6829
    endloop
  endfacet
  facet normal -1 0 0
    outer loop
      vertex -37.25 -10.25 27.6829
      vertex -37.25 10.25 33.6829
      vertex -37.25 10.25 27.6829
    endloop
  endfacet
  facet normal -1 -0 0
    outer loop
      vertex -37.25 10.25 33.6829
      vertex -37.25 -10.25 27.6829
      vertex -37.25 -10.25 33.6829
    endloop
  endfacet
  facet normal 0 1 -0
    outer loop
      vertex -22.75 10.25 27.6829
      vertex -37.25 10.25 33.6829
      vertex -22.75 10.25 33.6829
    endloop
  endfacet
  facet normal 0 1 0
    outer loop
      vertex -37.25 10.25 33.6829
      vertex -22.75 10.25 27.6829
      vertex -37.25 10.25 27.6829
    endloop
  endfacet
  facet normal 0 -1 0
    outer loop
      vertex -37.25 -10.25 27.6829
      vertex -22.75 -10.25 33.6829
      vertex -37.25 -10.25 33.6829
    endloop
  endfacet
  facet normal 0 -1 -0
    outer loop
      vertex -22.75 -10.25 33.6829
      vertex -37.25 -10.25 27.6829
      vertex -22.75 -10.25 27.6829
    endloop
  endfacet
  facet normal 1 -0 0
    outer loop
      vertex 2.25 -7 27.6829
      vertex 2.25 7 0
      vertex 2.25 7 27.6829
    endloop
  endfacet
  facet normal 1 0 0
    outer loop
      vertex 2.25 7 0
      vertex 2.25 -7 27.6829
      vertex 2.25 -7 0
    endloop
  endfacet
  facet normal 0 0 -1
    outer loop
      vertex 6.25 -11 27.6829
      vertex 2.25 -7 27.6829
      vertex 6.25 11 27.6829
    endloop
  endfacet
  facet normal 0 0 -1
    outer loop
      vertex 6.25 -11 27.6829
      vertex -2.25 -7 27.6829
      vertex 2.25 -7 27.6829
    endloop
  endfacet
  facet normal -0 0 -1
    outer loop
      vertex -2.25 -7 27.6829
      vertex -6.25 -11 27.6829
      vertex -2.25 7 27.6829
    endloop
  endfacet
  facet normal 0 0 -1
    outer loop
      vertex -6.25 -11 27.6829
      vertex -2.25 -7 27.6829
      vertex 6.25 -11 27.6829
    endloop
  endfacet
  facet normal 0 0 -1
    outer loop
      vertex 2.25 7 27.6829
      vertex 6.25 11 27.6829
      vertex 2.25 -7 27.6829
    endloop
  endfacet
  facet normal 0 0 -1
    outer loop
      vertex -2.25 7 27.6829
      vertex 6.25 11 27.6829
      vertex 2.25 7 27.6829
    endloop
  endfacet
  facet normal 0 0 -1
    outer loop
      vertex -2.25 7 27.6829
      vertex -6.25 11 27.6829
      vertex 6.25 11 27.6829
    endloop
  endfacet
  facet normal 0 0 -1
    outer loop
      vertex -6.25 11 27.6829
      vertex -2.25 7 27.6829
      vertex -6.25 -11 27.6829
    endloop
  endfacet
  facet normal 0 0 -1
    outer loop
      vertex -2.25 -7 0
      vertex 2.25 7 0
      vertex 2.25 -7 0
    endloop
  endfacet
  facet normal -0 0 -1
    outer loop
      vertex 2.25 7 0
      vertex -2.25 -7 0
      vertex -2.25 7 0
    endloop
  endfacet
  facet normal -1 0 0
    outer loop
      vertex -2.25 -7 0
      vertex -2.25 7 27.6829
      vertex -2.25 7 0
    endloop
  endfacet
  facet normal -1 -0 0
    outer loop
      vertex -2.25 7 27.6829
      vertex -2.25 -7 0
      vertex -2.25 -7 27.6829
    endloop
  endfacet
  facet normal 0 1 -0
    outer loop
      vertex 2.25 7 0
      vertex -2.25 7 27.6829
      vertex 2.25 7 27.6829
    endloop
  endfacet
  facet normal 0 1 0
    outer loop
      vertex -2.25 7 27.6829
      vertex 2.25 7 0
      vertex -2.25 7 0
    endloop
  endfacet
  facet normal 0 -1 0
    outer loop
      vertex -2.25 -7 0
      vertex 2.25 -7 27.6829
      vertex -2.25 -7 27.6829
    endloop
  endfacet
  facet normal 0 -1 -0
    outer loop
      vertex 2.25 -7 27.6829
      vertex -2.25 -7 0
      vertex 2.25 -7 0
    endloop
  endfacet
  facet normal 1 -0 0
    outer loop
      vertex 6.25 -11 33.6829
      vertex 6.25 11 27.6829
      vertex 6.25 11 33.6829
    endloop
  endfacet
  facet normal 1 0 0
    outer loop
      vertex 6.25 11 27.6829
      vertex 6.25 -11 33.6829
      vertex 6.25 -11 27.6829
    endloop
  endfacet
  facet normal -0 0 1
    outer loop
      vertex -6.25 11 33.6829
      vertex 6.25 -11 33.6829
      vertex 6.25 11 33.6829
    endloop
  endfacet
  facet normal 0 0 1
    outer loop
      vertex 6.25 -11 33.6829
      vertex -6.25 11 33.6829
      vertex -6.25 -11 33.6829
    endloop
  endfacet
  facet normal -1 0 0
    outer loop
      vertex -6.25 -11 27.6829
      vertex -6.25 11 33.6829
      vertex -6.25 11 27.6829
    endloop
  endfacet
  facet normal -1 -0 0
    outer loop
      vertex -6.25 11 33.6829
      vertex -6.25 -11 27.6829
      vertex -6.25 -11 33.6829
    endloop
  endfacet
  facet normal 0 1 -0
    outer loop
      vertex 6.25 11 27.6829
      vertex -6.25 11 33.6829
      vertex 6.25 11 33.6829
    endloop
  endfacet
  facet normal 0 1 0
    outer loop
      vertex -6.25 11 33.6829
      vertex 6.25 11 27.6829
      vertex -6.25 11 27.6829
    endloop
  endfacet
  facet normal 0 -1 0
    outer loop
      vertex -6.25 -11 27.6829
      vertex 6.25 -11 33.6829
      vertex -6.25 -11 33.6829
    endloop
  endfacet
  facet normal 0 -1 -0
    outer loop
      vertex 6.25 -11 33.6829
      vertex -6.25 -11 27.6829
      vertex 6.25 -11 27.6829
    endloop
  endfacet
  facet normal 1 -0 0
    outer loop
      vertex 34 -17 27.6829
      vertex 34 17 0
      vertex 34 17 27.6829
    endloop
  endfacet
  facet normal 1 0 0
    outer loop
      vertex 34 17 0
      vertex 34 -17 27.6829
      vertex 34 -17 0
    endloop
  endfacet
  facet normal 0 0 -1
    outer loop
      vertex 38 -21 27.6829
      vertex 34 -17 27.6829
      vertex 38 21 27.6829
    endloop
  endfacet
  facet normal 0 0 -1
    outer loop
      vertex 38 -21 27.6829
      vertex 26 -17 27.6829
      vertex 34 -17 27.6829
    endloop
  endfacet
  facet normal -0 0 -1
    outer loop
      vertex 26 -17 27.6829
      vertex 22 -21 27.6829
      vertex 26 17 27.6829
    endloop
  endfacet
  facet normal 0 0 -1
    outer loop
      vertex 22 -21 27.6829
      vertex 26 -17 27.6829
      vertex 38 -21 27.6829
    endloop
  endfacet
  facet normal 0 0 -1
    outer loop
      vertex 34 17 27.6829
      vertex 38 21 27.6829
      vertex 34 -17 27.6829
    endloop
  endfacet
  facet normal 0 0 -1
    outer loop
      vertex 26 17 27.6829
      vertex 38 21 27.6829
      vertex 34 17 27.6829
    endloop
  endfacet
  facet normal 0 0 -1
    outer loop
      vertex 26 17 27.6829
      vertex 22 21 27.6829
      vertex 38 21 27.6829
    endloop
  endfacet
  facet normal 0 0 -1
    outer loop
      vertex 22 21 27.6829
      vertex 26 17 27.6829
      vertex 22 -21 27.6829
    endloop
  endfacet
  facet normal 0 0 -1
    outer loop
      vertex 26 -17 0
      vertex 34 17 0
      vertex 34 -17 0
    endloop
  endfacet
  facet normal -0 0 -1
    outer loop
      vertex 34 17 0
      vertex 26 -17 0
      vertex 26 17 0
    endloop
  endfacet
  facet normal -1 0 0
    outer loop
      vertex 26 -17 0
      vertex 26 17 27.6829
      vertex 26 17 0
    endloop
  endfacet
  facet normal -1 -0 0
    outer loop
      vertex 26 17 27.6829
      vertex 26 -17 0
      vertex 26 -17 27.6829
    endloop
  endfacet
  facet normal 0 1 -0
    outer loop
      vertex 34 17 0
      vertex 26 17 27.6829
      vertex 34 17 27.6829
    endloop
  endfacet
  facet normal 0 1 0
    outer loop
      vertex 26 17 27.6829
      vertex 34 17 0
      vertex 26 17 0
    endloop
  endfacet
  facet normal 0 -1 0
    outer loop
      vertex 26 -17 0
      vertex 34 -17 27.6829
      vertex 26 -17 27.6829
    endloop
  endfacet
  facet normal 0 -1 -0
    outer loop
      vertex 34 -17 27.6829
      vertex 26 -17 0
      vertex 34 -17 0
    endloop
  endfacet
  facet normal 1 -0 0
    outer loop
      vertex 38 -21 33.6829
      vertex 38 21 27.6829
      vertex 38 21 33.6829
    endloop
  endfacet
  facet normal 1 0 0
    outer loop
      vertex 38 21 27.6829
      vertex 38 -21 33.6829
      vertex 38 -21 27.6829
    endloop
  endfacet
  facet normal -0 0 1
    outer loop
      vertex 22 21 33.6829
      vertex 38 -21 33.6829
      vertex 38 21 33.6829
    endloop
  endfacet
  facet normal 0 0 1
    outer loop
      vertex 38 -21 33.6829
      vertex 22 21 33.6829
      vertex 22 -21 33.6829
    endloop
  endfacet
  facet normal -1 0 0
    outer loop
      vertex 22 -21 27.6829
      vertex 22 21 33.6829
      vertex 22 21 27.6829
    endloop
  endfacet
  facet normal -1 -0 0
    outer loop
      vertex 22 21 33.6829
      vertex 22 -21 27.6829
      vertex 22 -21 33.6829
    endloop
  endfacet
  facet normal 0 1 -0
    outer loop
      vertex 38 21 27.6829
      vertex 22 21 33.6829
      vertex 38 21 33.6829
    endloop
  endfacet
  facet normal 0 1 0
    outer loop
      vertex 22 21 33.6829
      vertex 38 21 27.6829
      vertex 22 21 27.6829
    endloop
  endfacet
  facet normal 0 -1 0
    outer loop
      vertex 22 -21 27.6829
      vertex 38 -21 33.6829
      vertex 22 -21 33.6829
    endloop
  endfacet
  facet normal 0 -1 -0
    outer loop
      vertex 38 -21 33.6829
      vertex 22 -21 27.6829
      vertex 38 -21 27.6829
    endloop
  endfacet
endsolid OpenSCAD_Model
